<svg transform="scale(1)" version="1.1" id="fN3oSuNrYC" xmlns="http://www.w3.org/2000/svg" xmlns:xlink="http://www.w3.org/1999/xlink" x="0px" y="0px" viewBox="0 0 500 500" xml:space="preserve" class="pbimage_pbimage__wrapper__image__0LEis false"><title>People</title><style type="text/css"> .st0{fill:#59BE4C;} .st1{fill:#000005;} .st2{fill:#FFFFFF;}
 .st2{fill:#FFFFFF;}
 .st1{fill:#010005;}
 .st0{fill:#874cbe;}</style><g id="character-5"><path class="st0" d="M397.9,285.9c0,0-11.2-125.2-60-121.5s-63.4,120.9-63.4,120.9S366,285.9,397.9,285.9z" fill="#874cbe"></path><path class="st0" d="M400.2,285.3c-0.4-4-0.9-8-1.4-12c-1.3-9.7-3-19.4-5-29c-2.4-11.8-5.6-23.5-9.6-34.8
		c-3.9-10.8-8.6-21.5-15.5-30.7c-5.7-7.5-13.3-14-22.8-15.8c-10.4-1.9-20.7,2.2-28.7,8.7c-9,7.3-15.4,17.4-20.6,27.7
		c-5.6,11.4-10.1,23.2-13.6,35.4c-3.1,10.6-5.7,21.4-7.8,32.2c-1.2,6-2.2,12-3,18.1c0,0.3-0.1,0.5-0.1,0.8c-0.1,0.9,1.1,1.1,1.8,1.1
		l9.4,0.1l23.4,0.1l31,0.2l31.7,0.2c8.5,0,17,0,25.5,0.1h2.5c1.2,0,2.4-0.7,2.9-1.9c0.4-1.2-0.7-1.6-1.7-1.6c-8.1,0-16.3,0-24.4-0.1
		l-31.2-0.1l-31.5-0.2l-24.8-0.1l-7.8-0.1c-1.2-0.1-2.4-0.1-3.6,0H275l1.8,1.1c0.5-4.1,1.2-8.1,1.9-12.1c1.7-9.5,3.8-19.3,6.3-28.9
		c3-12,7-23.7,11.7-35.2c2.3-5.5,5-10.9,8-16.1c1.5-2.5,3-4.9,4.7-7.3c0.8-1.1,1.6-2.2,2.5-3.3s1.6-1.9,2.4-2.8
		c1.7-1.9,3.6-3.7,5.6-5.4l0.8-0.6c-0.4,0.3,0.2-0.1,0.3-0.2c0.5-0.4,1-0.8,1.6-1.1c1-0.7,2-1.3,3.1-1.9c0.6-0.4-0.2,0.1,0.4-0.2
		l0.7-0.3c0.6-0.3,1.1-0.5,1.7-0.8s1-0.4,1.6-0.6l0.4-0.2c0.4-0.1-0.6,0.2,0,0l0.9-0.3c1.1-0.3,2.3-0.6,3.5-0.8c0.6-0.1-0.3,0,0,0
		l0.5-0.1l0.8-0.1c0.6-0.1,1.2-0.1,1.9-0.1s1.1,0,1.6,0c0.2,0,0.3,0,0.5,0l0.9,0.1c1.1,0.1,2.2,0.3,3.2,0.5c0.9,0.2,1.9,0.5,2.8,0.8
		c3,1.1,5.8,2.6,8.4,4.6c1.8,1.4,3.6,3,5.1,4.7c7.3,7.8,12.3,17.8,16.3,27.7c4.4,11.2,8,22.6,10.6,34.3c2.4,10,4.3,20.2,5.8,30.4
		c0.8,5.5,1.6,11,2.1,16.6c0,0.2,0,0.5,0.1,0.8C395.7,288.8,400.4,287.3,400.2,285.3z" fill="#874cbe"></path><path class="st1" d="M362.9,141.4c0,0,19.2,2.8,22-5s-9.4-5.4-9.4-5.4s13.4-16.5-6.1-18.4c0,0,15.6-12.8,2.3-23.4
		S333.4,87,333.4,87s-0.1-17.3-19.8-14.1s-14.4,13.3-14.4,13.3S286.6,88,286.5,94s9.5,7.8,9.5,7.8s4.4,16.8,21.5,13.5l17.6,20.5
		c0,0-5.5,8,1.2,15.7S364.3,152.3,362.9,141.4z" fill="#010005"></path><path class="st1" d="M362.9,141.9c5.8,0.8,12.1,1.2,17.7-0.3c3.1-0.8,6.2-2.3,7-5.7c1-3.9-2.7-5.2-5.9-5.8
		c-2.7-0.5-5.5-0.4-8.3,0.1l4.5,1c3.4-4.2,7.2-12,1.7-16.1c-3-2.3-7.2-3-10.9-3.4l2.9,1.2c2.4-2,4.4-4.4,5.9-7.1
		c2.7-4.9,2.5-10.3-1.3-14.6c-4.5-4.9-11.3-7-17.7-7.8c-5.9-0.7-12-0.5-17.8,0.6c-3.3,0.5-6.5,1.3-9.6,2.3l4.8,1
		c0-5.7-3.2-10.8-8.3-13.4c-6.2-2.9-13.6-2.6-20.1-1c-4.1,1-9.3,2.9-11,7.3c-0.7,1.8-0.6,3.8,0.3,5.6l0.3-0.3
		c-3.6,0.5-7.8,1.7-10.7,4c-1.9,1.5-2.9,3.5-2.1,5.9s3.1,3.9,5.3,4.9c2,0.9,4.2,1.6,6.4,2l-2.4-0.9c1.9,7,7.4,12.4,14.4,14.2
		c3.8,1,7.8,1.1,11.6,0.3l-4.4-0.9l17.3,20c0.1,0.1,0.3,0.2,0.3,0.4s0-0.2-0.1,0c-0.5,0.9-0.9,1.8-1.3,2.8
		c-1.4,3.9-0.8,8.2,1.6,11.6c4,5.8,12.9,6.5,19.2,5.1c6-1.4,14-5.7,13.2-13c-0.1-1.1-5-1.2-4.9-0.8c0.7,6.5-5.9,10.8-11.4,12.3
		c-1.5,0.4-3.1,0.7-4.7,0.8c-0.5,0-1.1,0-1.6-0.1c0.5,0.1-0.1,0-0.2,0c-0.5-0.1,0.6,0.2-0.2,0c0.3,0.1-0.4-0.1-0.5-0.1
		c-3.6-1.4-5.9-5.6-6.2-9.3c-0.2-2.9,0.5-5.9,2.1-8.3l-0.1-0.1L323,119c-0.9-1-1.8-2.1-2.7-3.2c-1.8-2-5-1.1-7.3-0.9
		c-0.7,0.1-1.4,0.1-2.1,0l-0.5-0.1h-0.2l-0.3-0.1c-1-0.3-1.9-0.7-2.8-1.2c-1.9-1.1-3.5-2.6-4.9-4.3c-1.7-2.1-3-4.6-3.8-7.2
		c-0.2-0.7-1.9-0.8-2.4-0.9c0.6,0.1,0.7,0.3,0.3,0c-0.1,0-0.2-0.1-0.3-0.1c0.5,0.1,0.2,0-0.1,0c-0.7-0.2-1.5-0.5-2.2-0.8
		c-2-0.9-4.1-2.4-4.7-4.6c-1.4-4.7,4.5-7.1,8-8.2c1.3-0.4,2.7-0.7,4.1-0.9c0.2,0,0.4-0.1,0.3-0.3c-0.1-0.3-0.3-0.7-0.4-1
		c-0.2-0.9-0.3-1.9-0.2-2.8c0.5-3.6,3.8-5.8,6.9-7.1c3.1-1.2,6.3-2,9.7-2.3c1.2-0.1,2.5-0.1,3.7,0c-0.4,0,0.7,0.1,0.4,0.1l0.4,0.1
		c0.4,0.1,0.8,0.3,1.1,0.4c3.1,1.4,5.4,4,6.6,7.2c0.8,1.8,1.2,3.6,1.3,5.6c0,0.5,1.7,0.8,2,0.9c0.9,0.3,1.9,0.3,2.8,0.1
		c6.9-2.2,14.1-3.2,21.3-3c5.2,0.2,10.1,2.3,13.8,5.9c3.8,3.9,4.4,9,2,13.8c-1.4,3-3.5,5.6-6,7.7c-0.6,0.5,2.7,1.1,2.9,1.2
		c3.8,0.4,7.5,2.4,7.6,6.7c0.1,3.1-1.5,6.2-3.1,8.8c-0.4,0.7-0.9,1.3-1.4,1.9c-0.2,0.3,1.7,0.8,1.7,0.8c0.9,0.3,1.9,0.4,2.8,0.2
		c0.5-0.1,1-0.2,1.5-0.2c0.1,0,0.3,0,0.4,0l0.9-0.1h0.9c0.5,0,0,0,0.1,0c0.4,0,0.1,0-0.1,0c0.3,0.1-0.2-0.1,0.1,0.1
		c0.4,0.2,0.7,0.5,1,0.8c0.7,1.1,0.7,2.5,0.2,3.6c-1.8,5.6-10.3,5.7-14.8,5.6c-0.7,0-1.5-0.1-2.2-0.1h-0.5c-0.2,0-0.1,0,0.2,0h-0.3
		l-0.8-0.1l-1.2-0.1h0.2c-0.3,0-2.5-0.4-2.6,0.1S362.6,141.9,362.9,141.9z" fill="#010005"></path><path class="st2" d="M348.9,173.1c1.1-4.5-5.1-31.1-5.1-31.1s10.4-0.2,11.4-11.6s-10.7-12.5-16.2-1c0,0-12.3-23.3-5.9-36.2
		c0,0-21.8,14-35.5,11.5c0,0-13.8,39.2-2.7,53.8c9.7,12.7,18.9,11.8,18.9,11.8l1.1,2.6l4.1,15.1L348.9,173.1z" fill="#FFFFFF"></path><path class="st1" d="M350.7,174.5c0.3-1.8,0.3-3.7,0-5.5c-0.3-2.6-0.7-5.1-1.1-7.7c-0.9-5.2-2-10.4-3.2-15.5
		c-0.3-1.1-0.5-2.3-0.8-3.5l-1,1.9c4.9-0.3,9.3-3.3,11.2-7.8c1.8-4.1,1.8-8.7-0.1-12.8c-1.5-3.1-4.9-5-8.4-4.7
		c-4.6,0.5-8.1,4.6-10,8.6l3,1c-0.4-0.7,0.2,0.5,0-0.1s-0.6-1.2-0.8-1.7c-0.9-2-1.7-4-2.5-6c-2-5.3-3.6-10.9-3.8-16.7
		c-0.2-3.1,0.3-6.2,1.6-9c0.4-1,0.3-2.1-0.5-2.9c-0.5-0.7-1.6-1.6-2.5-1c-2.6,1.6-5.3,3.1-8,4.5c-5.4,2.9-11.1,5-17,6.4
		c-3.2,0.8-6.4,0.9-9.6,0.4c-0.6-0.1-1.2,0.3-1.4,0.9c-2.9,8.2-4.9,16.7-6.2,25.4c-1,6.6-1.4,13.4-0.3,20c0.5,3,1.5,5.9,2.9,8.6
		c2.2,3.8,5.1,7.1,8.6,9.8c3.6,3,9,6,13.9,5.6l-2.6-2c0.3,0.8,0.6,1.6,1,2.3c0.3,0.6-0.1-0.7,0-0.3l0.1,0.6l1.4,4.9l2.6,9.4
		c0.3,1.2,1.6,3.2,3.2,2.5l26.1-12.9l3.7-1.8c1.9-1-0.6-5.2-2.6-4.2L321.4,184l-3.7,1.8l3.2,2.5l-2.6-9.6c-0.5-1.6-0.9-3.3-1.3-4.9
		c-0.4-1.2-0.9-2.5-1.4-3.6c-0.4-1-1.4-2.1-2.6-2h-0.4c-0.4,0,0.4,0,0,0c-0.7-0.1-1.4-0.2-2.2-0.3c-2.5-0.6-4.8-1.6-6.9-3.1
		c-1.6-1.1-3.1-2.4-4.5-3.9c-0.8-0.9-1.6-1.8-2.4-2.7l-0.6-0.8c-0.5-0.6,0.2,0.3-0.1-0.1s-0.4-0.6-0.5-0.8s-0.3-0.5-0.5-0.8
		c0-0.1-0.2-0.4,0,0c-0.1-0.1-0.1-0.3-0.2-0.4c-0.3-0.6-0.5-1.2-0.8-1.9c-0.4-1.2-0.7-2.4-0.9-3.6c-1.1-5.9-0.6-12.2,0.2-18.1
		c0.8-5.7,2-11.3,3.5-16.8c0.8-2.9,1.6-5.8,2.6-8.7L298,107c6.2,1.1,12.6-0.6,18.4-2.7c5.2-1.9,10.2-4.3,15-7.1c1-0.6,2-1.2,3-1.8
		l-3-4c-2.9,5.9-2.4,12.8-1.1,19c1.2,5.6,3.1,11,5.5,16.2c0.5,1.2,1.1,2.4,1.8,3.6c0.4,0.7,2.4,2.3,3,1c1.5-3,3.7-6.1,7-7.3
		c1.1-0.4,2.3-0.5,3.5-0.2c0.2,0.1,0.3,0.1,0.5,0.2c0.1,0,0.5,0.3,0.1,0c0.1,0.1,0.2,0.2,0.3,0.2c0.1,0.1,0.2,0.2,0.3,0.3
		c-0.1-0.1-0.3-0.3,0,0c0.1,0.1,0.2,0.2,0.3,0.3c-0.4-0.4,0.1,0.1,0.1,0.2s0.2,0.4,0,0c0.1,0.1,0.1,0.3,0.2,0.4
		c0.1,0.2,0.2,0.4,0.2,0.6c0.2,0.8,0.2,1.6,0.2,2.4c0,1.8-0.4,3.6-1.2,5.3c-1.1,2.3-3.1,4.1-5.4,5.1c-1.2,0.5-2.5,0.8-3.9,0.9
		c-0.9,0-1.1,1.3-0.9,1.9c2.1,8.3,3.7,16.6,4.9,25.1c0.1,0.6,0.2,1.2,0.2,1.9c0-0.4,0,0.3,0,0.4c0,0.3,0,0.6,0,0.9s0,0.8,0,1.2
		c0,0.2,0,0.4,0,0.5s0.1-0.4,0,0.1c-0.2,1.2,0.3,2.5,1.3,3.2C349.1,175.5,350.4,175.7,350.7,174.5z" fill="#010005"></path><path class="st2" d="M308.1,145.7c0,0-25.6,9.6-33.4-3.1s9.8-23.4,27.2-15.2" fill="#FFFFFF"></path><path class="st1" d="M307,143.5c-6.4,2.4-13.5,3.9-20.3,3.3c-2.2-0.1-4.3-0.7-6.3-1.6c-1.8-0.9-3.2-2.3-4.2-4
		c-2.4-4.5-0.7-9,3.7-11.8c6.4-4,14.9-2.9,21.4,0.1c0.9,0.5,2.1,0.2,2.6-0.7c0.1-0.1,0.1-0.2,0.1-0.3c0.3-1.3-0.4-2.6-1.6-3.1
		c-7-3.3-15.7-4.5-23-1.3c-5.8,2.5-10,7.9-8.7,14.4c1.2,6.2,6.2,10.6,12.1,12.2c5.2,1.4,10.9,0.9,16.1-0.1c3.4-0.6,6.8-1.5,10.1-2.7
		C311.8,146.9,309.4,142.6,307,143.5L307,143.5z" fill="#010005"></path><path class="st2" d="M329.6,141.7c0,0-1.2,5.3-6.4,5.1" fill="#FFFFFF"></path><path class="st1" d="M327.1,141.7l-0.1,0.2l0.1-0.3c-0.3,1.1-0.9,2.1-1.6,2.9l0.3-0.3c-0.2,0.3-0.5,0.5-0.8,0.8
		c-0.1,0.1-0.3,0.2-0.5,0.3l0.2-0.1c-0.1,0-0.1,0-0.1,0.1l-0.3,0.1l-0.2,0.1l-0.2,0.1c-0.2,0.1,0.5-0.2,0.3-0.1s-0.4,0.1-0.6,0.2
		c-0.4,0.1,0.7-0.1,0.2,0h-0.4h-0.2c0,0,0.7,0,0.4,0h-0.4c-0.6,0-1.2,0.1-1.8,0.3c-0.3,0.1-0.8,0.5-0.8,0.9c0.1,1,1.7,1.3,2.5,1.3
		c2.4,0.2,4.7-0.6,6.5-2.1c0.9-0.9,1.6-2,2.1-3.2c0.1-0.3,0.2-0.7,0.3-1s-0.5-0.8-0.7-0.9c-0.5-0.3-1.2-0.4-1.8-0.4
		C328.8,140.5,327.4,140.7,327.1,141.7L327.1,141.7z" fill="#010005"></path><path class="st1" d="M312.4,120.9c0.3,1.1-0.4,2.2-1.4,2.4c-0.1,0-0.1,0-0.2,0c-2.1,0.3-2.5-2.3-0.8-3.2c0.8-0.5,1.8-0.3,2.3,0.5
		C312.3,120.8,312.3,120.8,312.4,120.9z" fill="#010005"></path><path class="st1" d="M302.2,122c0.3,1.1-0.4,2.2-1.4,2.4c-0.1,0-0.1,0-0.2,0c-2.1,0.3-2.5-2.3-0.8-3.2c0.8-0.5,1.8-0.3,2.3,0.5
		C302.2,121.8,302.2,121.9,302.2,122z" fill="#010005"></path></g><g id="character-4"><path class="st2" d="M85.3,296.5c0-15.1,3.2-121.9,49.6-125.2s56.1,34.5,64.7,118.7"></path><path class="st1" d="M87.8,296.2c0-5.2,0.2-10.4,0.5-15.5c0.5-8.8,1.3-17.5,2.5-26.2c1.3-10.2,3.2-20.4,5.7-30.4
		c2.3-9.8,5.8-19.3,10.2-28.3c3.9-7.6,9.1-14.9,16.2-19.6c3.1-2.1,6.6-3.5,10.2-4.3c-0.6,0.1,1.3-0.2,0.5-0.1l0.8-0.1
		c0.1,0,0.4,0,0.1,0h0.4c1.3-0.1,2.2-0.1,3.3-0.1c2.2,0,4.3,0,6.5,0.3c7.7,0.7,15.1,3.6,21.2,8.4c6.5,5.3,11,12.6,14.3,20.2
		c4.5,10.3,7.2,21.3,9.3,32.3c2.9,14.8,4.8,29.7,6.4,44.7c0.5,4.3,0.9,8.5,1.4,12.8c0.1,0.6,5,0.1,5-0.5
		c-1.7-16.2-3.5-32.5-6.2-48.6c-2-12-4.5-24.1-8.7-35.5c-3-8.3-7.1-16.6-13.4-23c-5.5-5.6-12.6-9.4-20.4-10.9
		c-4.6-0.9-9.2-1.3-13.9-1.1c-5,0-10.1,0.7-14.9,2.3c-7.9,2.9-14.1,8.9-18.7,15.8c-5.5,8.1-9.2,17.3-12.1,26.6
		c-3.1,10.2-5.4,20.6-7,31.1c-1.5,9.4-2.6,19-3.3,28.5c-0.5,6.4-0.8,12.8-0.9,19.3c0,0.8,0,1.7,0,2.5
		C82.9,297.2,87.9,297,87.8,296.2L87.8,296.2z"></path><path class="st1" d="M120.5,166.8c0,0-21.3,5.6-32,40.9s-7.8,42-7.8,42l10.6,5.6c0,0,5.6-70.6,31.4-79l0,0L120.5,166.8"></path><path class="st1" d="M119.7,166c-3.7,1.1-7.1,3-10.1,5.4c-7.8,5.8-13.7,13.8-17.9,22.5c-3.4,6.8-5.6,14.1-7.6,21.4
		c-1.7,6-3.2,12-4.4,18.1c-0.7,3.5-1.3,7.1-1.6,10.7c-0.2,1.7-0.2,3.3,0,5c0.1,0.8,0.1,1.2,0.8,1.6c3.1,1.7,6.3,3.3,9.5,5l1,0.5
		c1,0.5,4.3,0.1,4.5-1.4c0.8-9.8,2.3-19.4,4.4-29c1.6-8.1,3.9-16.1,6.7-23.8c2.6-6.9,5.9-14,11-19.5c1.1-1.2,2.4-2.4,3.7-3.3
		c0.3-0.2,0.7-0.5,1.1-0.7l0.5-0.3l0.3-0.2l0,0c0.4-0.2,0.8-0.4,1.1-0.5l0.5-0.2c-0.6,0.2,0.2-0.1,0.3-0.1c3.9-1.3,7.7-2.5,11.6-3.8
		c0.6-0.2,2-0.8,1.5-1.6s-2.5-0.3-3.1-0.1l-11.5,3.7l3.3,0.4l-2.2-9.5c-0.3-1.4-5.2-0.4-4.9,1l2.2,9.5c0.2,1.1,2.7,0.5,3.3,0.4
		l11.4-3.8l-1.7-1.7l-9.7,3.1c-3.7,1.1-7.1,2.9-10,5.3c-5.6,4.9-9.3,11.8-12.2,18.5c-6.2,14.5-9.3,30.4-11.4,46
		c-0.5,3.7-1,7.4-1.3,11.1l4.5-1.4l-10.7-5.6l0.4,0.4c-0.6-1.4-0.4-3.4-0.3-4.9c0.3-7,2-14,3.6-20.8c4.7-18.8,10.7-39.8,27-51.7
		c1.1-0.8,2.2-1.6,3.4-2.2l0.5-0.3l0.7-0.4c0.4-0.2,0.9-0.4,1.3-0.6l1-0.4c0.5-0.2,0.1,0,0,0c0.1,0,0.2-0.1,0.3-0.1
		c0.2-0.1,0.4-0.1,0.7-0.2c0.6-0.1,2-0.8,1.5-1.6S120.4,165.8,119.7,166L119.7,166z"></path><path class="st1" d="M123.1,160.8c0,0-21.4-23.4-13.6-55.8s25-38.3,51.7-40.1c26.6-1.7,48.1,45.1,36.3,77.1s-27.1,24.7-27.1,24.7
		s10.1,13.6,4.8,20.9s-45.1,3.4-53.4-4.3S123.1,160.8,123.1,160.8z"></path><path class="st1" d="M125,160.1c-0.2-0.3-0.4-0.5-0.7-0.8s-0.5-0.6-0.7-0.9c-0.1-0.1-0.2-0.3-0.4-0.5s-0.2-0.2-0.2-0.3l-0.1-0.2
		c-1.9-2.7-3.7-5.5-5.2-8.4c-4.9-9.1-7.4-19.3-7.5-29.7c0.1-6.5,1.2-12.9,3.1-19c1.4-5,3.5-9.7,6.1-14.1
		c4.2-7.1,10.8-12.6,18.5-15.5c4-1.5,8.2-2.5,12.4-3.1c2.3-0.3,4.7-0.6,7-0.8c2.2-0.3,4.5-0.4,6.8-0.3c0.5,0,1,0.1,1.5,0.1l0.7,0.1
		c-0.4-0.1,0.1,0,0.2,0c1,0.2,2,0.5,2.9,0.8c-0.5-0.2,0.3,0.1,0.3,0.1l0.7,0.3c0.5,0.2,0.9,0.4,1.4,0.6c0.9,0.4,1.7,0.9,2.6,1.4
		c3.6,2.3,6.8,5.2,9.4,8.6c6.4,7.8,10.5,17.6,12.7,27.4c2.3,10.3,2.6,21.3-0.2,31.5c-1.7,6-4.2,11.6-7.4,16.9
		c-2.1,3.5-4.8,6.6-8.1,8.9c-1.1,0.8-2.3,1.4-3.6,1.8c-0.6,0.2-1.1,0.3-1.7,0.5c0.7-0.1-0.1,0-0.2,0s-0.6,0.1-0.9,0.1s-0.5,0-0.7,0
		c-0.4,0,0.6,0,0.2,0h-0.3c-0.4,0-0.8-0.1-1.2-0.1c-0.6,0,0.7,0.2,0.1,0l-0.4-0.1c-0.2-0.1-0.5-0.1-0.8-0.2
		c-0.5-0.1,0.8,0.3,0.2,0.1l-0.1-0.1c-0.8-0.4-1.8-0.4-2.7-0.1c-0.6,0.3-1.1,1-0.6,1.6c1.3,1.8,2.5,3.8,3.5,5.8
		c1.6,3.3,3.2,7.2,2.6,11c-0.1,0.8-0.4,1.5-0.8,2.2c-0.2,0.3-0.4,0.6-0.6,0.8c-0.1,0.1-0.2,0.2-0.2,0.3c-0.2,0.3,0.3-0.2,0,0
		c-0.4,0.3-0.7,0.5-1.1,0.7l-0.4,0.2c0.4-0.2,0.1,0,0,0c-0.3,0.1-0.6,0.2-0.8,0.3c-0.6,0.2-1.3,0.4-1.9,0.6l-0.4,0.1l-0.2,0.1
		c-0.4,0.1-0.8,0.1-1.2,0.2c-1.6,0.2-3.2,0.4-4.9,0.5c-7.7,0.3-15.4-0.3-23-1.8c-1.9-0.4-3.7-0.8-5.6-1.3c-0.8-0.2-1.6-0.4-2.4-0.7
		l-0.7-0.2l-1.3-0.5c-0.7-0.3-1.3-0.5-2-0.8l-0.9-0.4c-0.1-0.1-0.3-0.1-0.4-0.2c0.6,0.3,0,0-0.2-0.1c-0.5-0.3-0.9-0.6-1.4-0.9
		s0,0,0.1,0.1l-0.4-0.4c-0.4-0.4-0.7-0.8-1-1.2c-2.6-3.7-1.7-8.6-0.4-12.6c0.8-2.4,1.9-4.7,3.2-6.9c1.3-2-3.4-3.7-4.5-2
		c-3.4,5.3-6.4,13-4.2,19.3c2.5,7.3,11.2,9.7,17.9,11.2c8.5,2,17.3,2.9,26,2.8c3.6,0,7.3-0.4,10.8-1.2c2.3-0.6,5-1.6,6.4-3.7
		c2.6-4.2,1.2-9.5-0.6-13.7c-1.2-2.8-2.7-5.5-4.5-8l-3.3,1.6c3.1,1.5,7.1,1.3,10.4,0.3c8.6-2.7,13.9-11.4,17.5-19.1
		c2.6-5.5,4.5-11.3,5.4-17.4c0.8-5.5,0.9-11.2,0.2-16.7c-1.1-10.9-4.7-21.5-10.3-30.9c-4.9-8.1-11.9-15.7-21-19
		c-4.5-1.5-9.3-2.1-14.1-1.5c-5,0.3-10,1.1-14.9,2.1c-8.6,1.9-16.7,5.7-22.8,12.2c-7.4,8-11.4,19.3-13.4,29.9
		c-2.1,11.8-0.9,24.1,3.6,35.2c2.5,6.4,6,12.4,10.4,17.7c0.2,0.3,0.4,0.5,0.7,0.8c0.9,0.9,2.2,1.2,3.4,0.9c0.7-0.1,1.1-0.8,0.9-1.5
		C125.4,160.5,125.2,160.3,125,160.1z"></path><path class="st2" d="M142.1,145.2c0,0,6.5,16.2,28.8,15.6c0,0,13.9-3.9,22-13.6c11.9-14.4-8.8-53.9-8.8-53.9
		c-7.5-10.7-20.5-5.6-20.5-5.6c-18.4,8.9-23.7,28.3-23.7,28.3S138.3,133.5,142.1,145.2z"></path><path class="st1" d="M140.8,145.2c1.8,4.1,4.6,7.7,8.2,10.6c3.1,2.6,6.6,4.5,10.4,5.7c2.4,0.8,4.9,1.2,7.5,1.5
		c1.8,0.1,3.9,0.5,5.6,0c7.9-2.3,15-6.5,20.7-12.4c5.4-5.7,5.6-13.8,4.6-21.1c-1.3-8.3-3.6-16.4-6.9-24.1c-1.6-4.3-3.5-8.5-5.7-12.6
		c-2.4-4-6.3-6.9-10.8-8c-3.4-0.8-7-0.7-10.4,0.2c-3.2,0.8-6.1,2.9-8.8,4.9c-3.8,2.9-7.2,6.5-9.9,10.4c-2.1,2.9-3.8,6.1-5.3,9.4
		c-0.7,1.5-1.3,3.1-1.7,4.7c-0.3,2.1-0.4,4.3-0.3,6.4c-0.2,5.3,0.1,10.6,0.8,15.9c0.4,2.7,1,5.4,1.7,7.9c0.3,1,1,2.4,2.1,2.8
		s1.2-0.8,0.9-1.6c-2.7-8.5-2.7-17.9-2.2-26.8c0-0.5,0-1,0.1-1.5c0-0.1,0.1-0.2,0.1-0.3l0.1-0.2c-0.1,0.2,0.1-0.3,0.1-0.4
		c0.8-2.4,1.9-4.8,3.1-7c4.1-8,10.5-14.5,18.3-18.9c5-2.7,12-2.9,16.9,0.3c0.9,0.6,1.7,1.3,2.4,2.1c0.1,0.2,1,1.3,0.6,0.7v0.1
		c0.1,0.1,0.1,0.3,0.2,0.4c0,0.1,0.1,0.2,0.2,0.3c0.3,0.6-0.1-0.2,0,0c1,2,1.9,4,2.8,6.1c3,6.6,5.3,13.4,7.1,20.4
		c1.5,6.5,2.8,14.3,0.1,20.7c-1.7,3.9-5.2,6.9-8.6,9.4c-3.5,2.5-7.3,4.5-11.3,6.1c-1.1,0.4-2.2,0.8-3.3,1.2
		c-1.4,0.3-2.8,0.3-4.2,0.1c-4.5-0.2-8.8-1.4-12.8-3.4c-1.5-0.8-2.8-1.7-4.1-2.7c-0.4-0.3-0.9-0.8-1.5-1.3l-0.8-0.8
		c-0.1-0.1-0.9-0.9-0.5-0.5c-0.4-0.4-0.7-0.9-1.1-1.4l-0.5-0.6c-0.1-0.2-0.7-1-0.2-0.3c-0.4-0.7-0.8-1.4-1.2-2
		c-0.1-0.2,0.3,0.7,0.1,0.2c0-0.1-0.1-0.1-0.1-0.2c0-0.1-0.1-0.1-0.1-0.2c-0.3-0.8-1.2-2.3-2.2-2.3S140.5,144.7,140.8,145.2z"></path><path class="st2" d="M150.5,133.4c0,0-1.7,9.7,7.4,8.3"></path><path class="st1" d="M148,133.4c-0.2,1.3-0.2,2.6,0,3.8c0.3,2.5,1.8,4.7,4,5.8c2,0.8,4.2,1,6.4,0.6c1.1-0.2,2.3-1.4,1.9-2.6
		c-0.2-0.5-0.5-1-1.1-1.2c-0.6-0.2-1.2-0.3-1.9-0.1c-0.4,0.1,0.5-0.1,0.3,0h-0.3h-0.5c-0.3,0-0.6,0-0.9,0h-0.2h0.4
		c-0.1,0-0.3,0-0.4-0.1s-0.5-0.1-0.8-0.2l0.4,0.1l-0.2-0.1l-0.3-0.1l-0.3-0.2l-0.1-0.1c-0.2-0.1,0.3,0.2,0.3,0.2s-0.4-0.3-0.5-0.4
		c-0.2-0.1-0.3-0.3-0.4-0.4l0.4,0.4c-0.4-0.4-0.7-0.9-0.9-1.4l0.2,0.5c-0.3-0.8-0.5-1.7-0.6-2.6v0.6c-0.1-0.9-0.1-1.8,0.1-2.7
		c0-0.6-0.2-1.1-0.6-1.5c-0.5-0.4-1.1-0.6-1.7-0.6C149.3,131.2,148.2,132.1,148,133.4L148,133.4z"></path><path class="st2" d="M179.6,117c4.3,2.9,9,5.1,14,6.6c16.7,5.4,17.8,11.6,12,14.2s-28.7-3.5-28.7-3.5"></path><path class="st1" d="M178.7,118.8c4.3,3,9.1,5.3,14.1,6.8c3.6,1.1,7.1,2.6,10.4,4.5c1,0.6,1.9,1.3,2.8,2.1c0.3,0.3-0.1-0.2,0.1,0.1
		c0.1,0.2,0.3,0.4,0.4,0.5c0.4,0.5-0.1-0.3,0.1,0.1c0.1,0.2,0.2,0.4,0.3,0.6c-0.5-1,0.1,0.1,0,0.1s-0.1-0.6,0-0.1s-0.1-0.2,0,0
		s-0.3,0.7,0,0.1c-0.1,0.1-0.1,0.2-0.1,0.3c-0.2,0.4,0.1,0-0.1,0.1c-0.2,0.3-0.5,0.5-0.7,0.8c-0.3,0.3,0.1-0.1-0.1,0.1
		c-0.1,0.1-0.3,0.2-0.4,0.2c-0.4,0.2-0.8,0.4-1.1,0.5c-0.3,0.1,0.3,0-0.2,0.1l-0.6,0.1c-0.5,0.1-0.9,0.1-1.4,0.1
		c-4.9,0.3-9.9-0.7-14.6-1.6c-3.6-0.7-7.1-1.5-10.6-2.4c-1.2-0.3-1.9,0.9-1.9,1.9c0,1.3,0.9,2.4,2.1,2.8c3.2,0.8,6.4,1.6,9.7,2.2
		c5.3,1.1,10.8,2.2,16.2,1.9c3.6-0.2,7.9-2.1,7.9-6.4c-0.1-5.7-6.9-9.1-11.4-11s-9.4-3.2-13.9-5.4c-1.4-0.7-2.7-1.4-4-2.2
		c-0.4-0.2-0.8-0.5-1.1-0.7c-0.1-0.1,0.4,0.3,0,0C177.8,113.2,176.6,117.2,178.7,118.8L178.7,118.8z"></path><path class="st1" d="M161.8,113.8c0,0,2.8,0,2.5,2.7s-3.5,2.3-4,0c-0.4-1,0.1-2.2,1.2-2.6C161.5,113.9,161.7,113.9,161.8,113.8z"></path><path class="st1" d="M180.3,110.6c0,0,2.8,0,2.5,2.7s-3.5,2.3-4,0c-0.4-1,0.1-2.2,1.2-2.6C180.1,110.7,180.2,110.6,180.3,110.6z"></path><path class="st1" d="M124.3,236.9v47.5c0,0.9,1.5,1.9,2.1,2.3c0.3,0.2,1.9,1.2,1.9,0.4v-47.5c0-0.9-1.5-1.9-2.1-2.3
		C126,237.1,124.3,236.1,124.3,236.9L124.3,236.9z"></path><path class="st1" d="M102.9,210.5c10.2,3.8,20.9,6,31.8,6.7c10.9,0.5,21.9-0.6,32.5-3.2c6.4-1.4,12.8-2.7,19.2-3.6
		c1.2-0.1-1.1-4.4-2.4-4.2c-5.7,0.7-11.3,1.8-16.9,3c-5.4,1.3-10.8,2.4-16.2,3.1c-10.7,1.3-21.5,0.9-32.2-1
		c-6-1.1-11.9-2.7-17.6-4.9c-1-0.4-0.7,0.9-0.4,1.4C101.2,209,102,210,102.9,210.5L102.9,210.5z"></path><path class="st1" d="M100,234.1c11.7,2.3,23.5,4.2,35.3,5.7c5.9,0.8,11.9,1.8,17.9,1.7c5.8-0.1,11-2.1,16.4-3.8
		c6.3-1.9,12.8-3.5,19.3-4.7c2.9-0.5,0.9-5-1.6-4.5c-5.7,1-11.4,2.4-17,4c-5.3,1.6-10.6,3.9-16.2,4.3c-2.9,0.1-5.9,0-8.8-0.4
		c-2.9-0.3-5.7-0.6-8.6-1c-5.9-0.7-11.7-1.6-17.6-2.5c-6.6-1-13.1-2.2-19.7-3.4c-1-0.1-1.9,0.6-2,1.6c0,0.1,0,0.3,0,0.4
		C97.7,232.9,98.7,233.9,100,234.1L100,234.1z"></path><path class="st1" d="M92.3,273.4c26.8-9.1,55.2,0.8,82.6-2.8c7.4-0.9,14.6-3,21.2-6.4c1.1-0.5-2.5-3.8-3.6-3.3
		c-25,13-53.9,4.5-80.6,5.3c-7.9,0.1-15.7,1.5-23.3,3.9C87.8,270.4,91.1,273.8,92.3,273.4L92.3,273.4z"></path></g><g id="character-3"><path class="st1" d="M409.9,232.6c0,0,3.2-26.3-15.7-38s-40.2-14.2-56.9-4.7s-27.7,20.8-23.6,41.6s10.2,30.7,5.1,39.5
		s-5.5,13.1,1.9,14.2s0.9,12.8,6.9,17.5s40.2,2.9,51.3-8.4s45.3-4.8,54.1-16.4s-11.6-14.2-6.9-21.9s4.6-10.2-4.6-11.3
		S410.9,236.6,409.9,232.6z"></path><path class="st1" d="M341.4,305.7c-6.6,0-11.9-0.9-14-2.5c-3-2.4-3.1-6.4-3.1-9.9c-0.1-4.3-0.3-7-3.6-7.5c-3-0.4-4.8-1.4-5.6-3.1
		c-1.1-2.4-0.1-5.8,3.4-11.9c3.4-5.9,1.7-12.2-1.1-22.6c-1.3-4.7-2.7-10-4-16.5c-4.5-22.5,8.8-33.6,23.8-42.1
		c16.1-9.2,37.6-7.4,57.4,4.8c18.5,11.4,16.1,36.6,16,38.4l0,0.2c0.9,4.1,2.4,10.4,11.1,11.4c4.7,0.6,7,1.5,7.8,3.2
		c1,2-0.3,4.8-2.8,8.9c-1.8,3,0.7,5.2,3.6,7.7c3.8,3.3,8.5,7.3,3.3,14.3c-4.6,6.1-15.5,7.3-27,8.6c-10.7,1.2-21.8,2.4-27.1,7.9
		C371.9,302.3,354.2,305.7,341.4,305.7z M360,184.7c-7.8-0.1-15.5,1.9-22.4,5.7c-14.7,8.4-27.7,19.2-23.3,41.1
		c1.3,6.4,2.7,11.7,4,16.4c2.8,10.3,4.6,17.1,1,23.4c-3.3,5.7-4.3,9-3.4,11c0.6,1.3,2.2,2.1,4.9,2.5c4.3,0.6,4.4,4.6,4.4,8.5
		c0,3.5,0.1,7.1,2.7,9.1c5.7,4.5,39.8,2.7,50.6-8.4c5.6-5.7,16.8-7,27.7-8.2c11.3-1.3,22-2.5,26.3-8.2c4.6-6.2,0.7-9.6-3.1-12.9
		c-3-2.6-6.1-5.2-3.8-9s3.5-6.4,2.7-8c-0.6-1.3-2.8-2.1-7-2.6c-9.4-1.1-11-8-11.9-12.2l-0.1-0.3c0-0.1,0-0.1,0-0.2
		c0-0.3,3-26.1-15.5-37.5C382.7,188.1,371,184.6,360,184.7L360,184.7z"></path><path class="st2" d="M327.7,281.1c-15.9-11-6.3-56-6.3-56c7-2.9,17.7-12.2,17.7-12.2c0.8,23,28.3,23.9,28.3,23.9
		c2.9-13.1,17.8-11.7,19.4,0.2s-9.4,15.5-9.4,15.5s14.1,35.7,14,40.6s-25.6,16.5-38-4.6C353.4,288.5,338.4,288.5,327.7,281.1z"></path><path class="st1" d="M330.1,280.5c-7.2-5.1-8.6-15.6-9-23.7c-0.4-8.9,0.2-17.8,1.7-26.6c0.3-1.9,0.6-3.8,1-5.7l-0.6,0.4
		c4.2-1.9,8.2-4.4,11.8-7.3c2.2-1.7,4.4-3.4,6.5-5.2l-4.8,1.2c0.1,7.3,3.9,14.1,10,18.2c4.5,2.9,9.7,4.7,15,5.4
		c1.2,0.2,2.4,0.3,3.6,0.4c0.9,0,1.9-0.2,2.8-0.6c0.4-0.1,1.6-0.4,1.7-0.8c0.4-2,1.2-3.8,2.4-5.4c0.5-0.6,1-1.1,1.5-1.6
		c0.3-0.2,0.6-0.5,0.9-0.7c0.2-0.1,0.7-0.3,0.9-0.4c-0.1,0.1-0.9,0.4-1.1,0.3c0.3,0,0.6,0,0.9,0c0.7,0,1.4,0.1,2.1,0.4
		c1.4,0.4,2.7,1.2,3.8,2.2c5.2,5.1,4.2,14.4-1,19.1c-0.9,0.9-2,1.6-3.1,2.2c-0.5,0.2-0.3,0.2-0.9,0.4s0.4-0.1,0.1,0
		s-0.6,0.2,0.4-0.1c-0.1,0-1.8,0.5-1.7,0.8c2,5,3.9,9.9,5.7,14.9c2.8,7.4,5.7,14.9,7.7,22.5c0.5,1.8,1,3.4-0.3,4.9
		c-0.9,0.9-1.9,1.7-3,2.2c-0.6,0.4-1.3,0.7-1.9,1c-0.5,0.2-0.4,0.2-0.9,0.3l-0.2,0.1l-0.7,0.2c0.5-0.1-0.2,0-0.3,0.1s0.1,0,0.1,0
		l-0.3,0.1c-0.6,0.1-0.5,0.1-1.1,0.2c-0.8,0.1-1.7,0.1-2.5,0.1c-2.1,0.1-4.3-0.1-6.4-0.6c-4.8-1.2-9.1-3.9-12.2-7.7
		c-0.9-1.1-1.7-2.3-2.5-3.5c-0.3-0.4-0.5-0.4-1-0.4c-1.4,0-2.8-0.1-4.3-0.3c-5.6-0.6-11.1-2.1-16.2-4.5
		C333,282.3,331.5,281.4,330.1,280.5c-0.6-0.4-1.9,0.1-2.5,0.3c-0.8,0.3-1.6,0.6-2.3,1c7.4,5,17.1,7.5,26,7.5l-0.4-0.1
		c4.4,7.4,11.6,12.1,20.2,12.3c4,0,8-0.6,11.8-1.8c2.9-0.8,5.7-2.1,8.3-3.9c1.2-0.9,2.6-2.1,2.5-3.6c-0.2-2.1-0.7-4.1-1.5-6.1
		c-2.1-6.8-4.6-13.5-7.1-20.2c-1.7-4.7-3.5-9.3-5.4-14l-1.7,0.8c5.7-1.9,10.6-6.4,11.2-12.6c0.4-4.2-0.8-8.8-4.3-11.4
		c-3.3-2.5-7.2-2.2-11-1.1c-2.2,0.6-4.3,1.7-5.9,3.3c-1.6,1.8-2.7,4.1-3.2,6.5l4.5-1.4c-0.9,0-1.7-0.1-2.6-0.2
		c-2.2-0.3-4.5-0.8-6.6-1.4c-5.8-1.8-11.4-4.9-14.9-10c-2.4-3.6-3.7-7.8-3.8-12.1c0-0.5-4.4,0.8-4.8,1.2c-4.4,4-9.2,7.5-14.4,10.6
		c-0.7,0.4-1.5,0.8-2.3,1.1c-0.4,0.2-0.9,0.3-1.1,0.7c-0.1,0.2-0.1,0.5-0.1,0.8c-0.3,1.4-0.5,2.8-0.8,4.2c-1.8,11.5-3,23.6-1,35.1
		c1,5.9,3.1,12.3,8.2,15.9c0.5,0.4,1.9-0.1,2.5-0.3C328.5,281.2,329.3,280.8,330.1,280.5z"></path><path class="st2" d="M365.9,251.7c0,0,2.5,12-10.7,12.3"></path><path class="st1" d="M363.7,251c0.1,0.4,0.1,0.8,0.1,1.2c0,0.4,0,0.8,0,1.2c0,0.1,0,0.2,0,0.4s0,0.5,0,0.2s0,0,0,0.2s0,0.3-0.1,0.5
		c-0.1,0.6-0.2,1.2-0.4,1.7c-0.1,0.3-0.2,0.6-0.3,0.8c-0.1,0.1-0.1,0.3-0.2,0.4c0.2-0.5,0,0.1-0.1,0.2c-0.3,0.6-0.7,1.1-1.1,1.6
		c-0.1,0.1-0.2,0.3-0.4,0.4c-0.1,0.1-0.5,0.4-0.1,0.1c-0.3,0.2-0.6,0.5-1,0.7c-0.4,0.3-0.8,0.5-1.3,0.6l-0.2,0.1
		c0,0-0.5,0.2-0.3,0.1s-0.1,0-0.2,0l-0.4,0.1c-1.2,0.3-2.5,0.5-3.8,0.5c-1.2,0-1.1,1.6-0.6,2.2c0.7,1.1,1.8,1.7,3.1,1.6
		c3.8-0.1,7.9-1.3,10-4.7c1.3-2.2,2-4.8,1.8-7.4c0-0.5-0.1-1.1-0.2-1.6c-0.3-1.2-1.2-2.2-2.4-2.5C364.9,249.6,363.4,249.8,363.7,251
		L363.7,251z"></path><path class="st2" d="M333.5,246.3c-3.5,4.1-7.6,7.6-12.1,10.5c-15.1,10-14.4,16.5-8,17.5s27.5-11.5,27.5-11.5"></path><path class="st1" d="M331.2,245.3c-3.8,4.9-9.4,8.4-14.4,12c-3,2-5.7,4.5-8,7.4c-1.2,1.5-2.3,3.5-2,5.5s2,3.2,3.5,4
		c2.1,1.1,4.6,1.5,6.9,1.2c2.4-0.4,4.8-1.1,7.1-2.1c2.7-1.1,5.3-2.3,7.9-3.6c3.7-1.8,7.3-3.8,10.9-5.8c0.9-0.5-0.8-1.6-1.2-1.8
		c-0.8-0.4-2.2-1-3.1-0.5c-2.6,1.5-5.2,3-7.9,4.3c-4.6,2.5-9.4,4.6-14.3,6.3c-1,0.3-2,0.5-3,0.7c-0.3,0-0.6,0.1-0.9,0.1h-0.1
		c-0.1,0-1-0.2-0.3,0c-0.1,0-0.7-0.1-0.3-0.1s-0.4-0.3,0.2,0.1c-0.4-0.3,0,0,0,0c-0.4-0.3,0.2,0.2-0.1-0.1s0.1,0.1-0.1-0.1
		c-0.1-0.1-0.2-0.2-0.2-0.4c-0.1-0.2-0.2-0.5-0.2-0.7c-0.3-1.7,0.8-3.6,1.8-4.9c2.1-2.7,4.6-5,7.4-6.9c5.3-3.9,11-7.5,15.1-12.7
		C336.5,246.4,332.2,244.1,331.2,245.3L331.2,245.3z"></path><path class="st2" d="M325.9,418.8c-16.4-8.8,16.5-113.2,23.8-113.8c0,0-12.6-5.7-4.2-12.5s42.7-16,50.5-14.5s4.8,18,4.8,18
		s106.3,89.6,48.8,125.3"></path><path class="st1" d="M327.2,417l-0.3-0.2c-0.3-0.1,0.5,0.4,0.1,0.1c-0.2-0.2-0.4-0.3-0.5-0.5s-0.5-0.6-0.1-0.1
		c-0.2-0.2-0.3-0.4-0.5-0.7c-0.3-0.5-0.5-0.9-0.7-1.4c-0.2-0.4,0.1,0.4,0,0.1l-0.1-0.4c-0.1-0.3-0.2-0.6-0.3-0.9
		c-0.4-1.4-0.6-2.9-0.8-4.3c0-0.4-0.1-0.8-0.1-1.1s0,0.2,0,0.2s0-0.2,0-0.3v-0.7c0-0.9-0.1-1.8,0-2.7c0-9.1,1.6-18.2,3.4-27.1
		c2.1-10.5,4.7-20.6,7.8-30.9c2.7-8.9,5.6-17.8,9.1-26.5c1.2-3,2.5-6,4-8.9l0.5-0.8c0-0.1,0.3-0.5,0.1-0.1s0.1-0.1,0.1-0.2
		c0.3-0.4,0.5-0.9,0.8-1.3s0.5-0.6,0.7-1c0.4-0.5-0.2,0.2,0,0c0.1-0.1,0.2-0.2,0.4-0.3c0.2-0.3-0.6,0.4-0.2,0.1
		c-0.3,0.1-0.6,0.2-0.9,0.2c1.1,0,2.1-0.6,2.5-1.6c0.4-0.9-0.1-2-1-2.4c-1.6-0.7-3-1.6-4.3-2.9c-0.8-0.7-1.4-1.6-1.7-2.7
		c-0.1-0.4-0.1-0.8,0.1-1.2c0.2-0.7,0.6-1.3,1.1-1.8c0.5-0.5,1-0.9,1.6-1.3c0.1-0.1,0.9-0.6,0.4-0.2l0.8-0.5c1.2-0.7,2.5-1.4,3.9-2
		c3.1-1.4,6.3-2.7,9.5-3.7c7.3-2.5,14.7-4.4,22.2-5.9c1.5-0.3,3.1-0.5,4.6-0.8l0.5-0.1c0,0,0.7-0.1,0.3,0l0.7-0.1
		c0.6-0.1,1.3-0.1,1.9-0.1s1,0,1.5,0c0.2,0,0.5,0,0.7,0s-0.2,0-0.2,0l0.4,0c0.9,0.1,1.7,0.7,2.2,1.4c1.6,2.4,1.7,5.8,1.7,8.8
		c0,1.9-0.2,3.9-0.5,5.8c0,0.6,0.2,1.1,0.6,1.5c3.5,2.9,6.8,6,10,9.1c7.7,7.3,15.1,14.9,22.1,22.9c8.4,9.4,15.8,19.5,22.3,30.4
		c3,5,5.5,10.3,7.5,15.8c0.9,2.6,1.7,5.3,2.3,8c0.3,1.3,0.5,2.6,0.7,4c0.1,0.6,0.1,1.1,0.2,1.7c0,0.1,0.1,1,0,0.6c0,0.4,0,0.8,0,1.1
		c0.3,4.8-0.6,9.7-2.5,14.1c-0.2,0.5-0.5,1.1-0.8,1.6c-0.1,0.3-0.3,0.5-0.4,0.8c0.2-0.4-0.3,0.5-0.4,0.6c-0.7,1.1-1.4,2.2-2.2,3.2
		c-0.4,0.5-0.8,1-1.2,1.5c-0.2,0.2-0.4,0.5-0.6,0.7c0.3-0.3-0.5,0.5-0.6,0.6c-1,1-2.1,2-3.3,2.9c-0.6,0.5-1.2,0.9-1.8,1.4
		c-0.3,0.2-0.6,0.5-1,0.7s-0.5,0.3-0.7,0.4c-1,0.6-1.8,1.7-1.1,2.9c0.8,1,2.2,1.4,3.3,0.7c5.3-3.1,9.8-7.3,13.2-12.4
		c2.9-4.5,4.6-9.7,5.1-15c1-11.4-3.2-22.8-8.3-32.8c-6-11.6-13.8-22.1-22.1-32c-7.3-8.7-15-17-23.2-24.9c-2.7-2.7-5.5-5.3-8.4-7.8
		c-1.3-1.3-2.7-2.5-4.1-3.6l-0.2-0.2l0.6,1.5c0.9-4.9,1.1-10.7-0.9-15.4c-1.3-2.9-4.1-4.9-7.3-4.9c-2.8-0.1-5.7,0.2-8.5,0.7
		c-8.1,1.4-16,3.4-23.8,6c-3.8,1.2-7.6,2.7-11.3,4.3c-2.8,1.1-5.4,2.6-7.8,4.5c-1.8,1.5-3.5,3.6-3.6,6c0,2,0.7,3.8,2.1,5.3
		c1.7,1.9,3.8,3.4,6.1,4.4l1.6-4c-2.3,0.3-3.7,1.9-4.9,3.8c-1.6,2.6-2.9,5.3-4.1,8.1c-3.6,8.4-6.7,17.1-9.3,25.8
		c-3.3,10.6-6.2,21.4-8.5,32.2c-2,9.5-3.8,19.2-4.2,29c-0.2,3.6,0,7.2,0.6,10.8c0.5,2.5,1.5,5.2,3.4,7c0.5,0.4,1,0.8,1.5,1.1
		C326.9,421.9,330,418.4,327.2,417L327.2,417z"></path><path class="st2" d="M378.5,307.4c-8,2.6-16.6,3.3-24.9,2.1"></path><path class="st1" d="M377.5,305.2c-7.9,2.5-16.2,3.2-24.4,2.1c-2.6-0.4-0.9,4.2,1,4.5c8.5,1.2,17.2,0.5,25.3-2.1
		C381.6,308.9,379.3,304.6,377.5,305.2L377.5,305.2z"></path><path class="st1" d="M324.8,244c0,0,0.4,2.6,2.8,2s1.7-3.6-0.5-3.7c-1-0.2-2,0.4-2.2,1.5C324.8,243.8,324.8,243.9,324.8,244z"></path><path class="st1" d="M339,240.9c0,0,0.4,2.6,2.8,2s1.7-3.6-0.5-3.7c-1-0.2-2,0.4-2.3,1.5C339,240.7,339,240.8,339,240.9z"></path></g><g id="character-2"><path class="st2" d="M189.7,262c0,0,99,18,121.9-4c0,0-22.4-73.4-32.8-87.9s-56.3-7.4-73.8,7.5S189.7,262,189.7,262z"></path><path class="st1" d="M188.9,263.5c3.6,0.6,7.1,1.2,10.7,1.7c8.3,1.3,16.7,2.3,25.1,3.2c10.6,1.1,21.3,1.9,32,2.1
		c10.6,0.4,21.2-0.2,31.7-1.6c8.1-1.3,16.8-3.2,23.5-8.3c0.6-0.5,1.3-1,1.8-1.5c0.3-0.3,0.5-0.8,0.4-1.2c-1.2-4-2.5-8-3.7-11.9
		c-2.9-9.1-5.9-18.2-9-27.3c-3.4-9.9-6.9-19.9-10.9-29.6c-1.6-4-3.3-8-5.1-11.9c-1.2-2.9-2.8-5.6-4.6-8.1c-2.8-3.4-7-5.4-11.1-6.6
		c-5.3-1.4-10.8-2-16.4-1.8c-12.2,0.3-24.3,2.8-35.6,7.5c-5,2-9.7,4.7-14,8c-2.8,2.4-5.1,5.4-6.7,8.8c-4.2,8.6-6,18.5-7.3,27.9
		c-1.3,10-2.1,20-2.4,30.1c-0.2,6-0.2,12-0.1,18.1c0,0.3,0,0.6,0,0.9c0,1.2,1.3,1.7,2.4,1.8c0.8,0.1,2.7-0.2,2.6-1.4
		c-0.1-4.1-0.1-8.2-0.1-12.3c0.1-9.3,0.6-18.6,1.5-27.9c1-9.8,2.3-19.7,5.4-29.1c1.2-3.9,2.9-7.5,5.1-10.9c2-3,5.5-5.5,8.9-7.4
		c9.8-5.7,21.3-8.8,32.5-10.1c5.4-0.7,10.9-0.8,16.3-0.2c0.6,0.1,1.2,0.1,1.8,0.2c0.8,0.1,0.7,0.1,1.5,0.3c1.2,0.2,2.3,0.5,3.4,0.9
		c0.9,0.3,1.8,0.6,2.6,1c0.5,0.2,0.9,0.4,1.3,0.7l0.6,0.4c0.2,0.1,0,0,0,0l0.3,0.2c2.4,1.8,4.3,4.1,5.5,6.8
		c1.6,3.1,3.3,6.8,4.7,10.2c3.9,9.2,7.3,18.7,10.6,28.2s6.5,18.9,9.5,28.4c1.7,5.4,3.4,10.8,5.1,16.3c0.1,0.3,0.2,0.5,0.2,0.8
		l0.4-1.2c-0.6,0.6-1.2,1.1-1.8,1.5l-0.3,0.2l-0.3,0.2c-0.4,0.2-0.7,0.5-1.1,0.7c-0.7,0.4-1.5,0.9-2.3,1.2l-1.2,0.6l-0.6,0.3
		l-0.4,0.1c-1.9,0.7-3.8,1.4-5.7,1.9c-1,0.3-2,0.5-3.1,0.8l-1.5,0.3l-0.9,0.2l-0.3,0.1h-0.2c-4.8,0.8-9.6,1.4-14.5,1.7
		c-5.2,0.3-10.5,0.5-15.4,0.4c-10.6-0.1-21.2-0.8-31.8-1.8c-8.7-0.8-17.3-1.9-25.9-3.1c-2.8-0.4-5.5-0.8-8.3-1.3l-2.6-0.4l-0.4-0.1
		h0.2l-0.5-0.1h-0.2c-1-0.2-2.6-0.2-3.2,0.9S188,263.3,188.9,263.5z"></path><path class="st2" d="M169.1,369.6c0,0,12.9-117.1,70-117.1s67.9,120,67.9,120"></path><path class="st0" d="M171.5,369.1c0.1-1.1,0.3-2.1,0.4-3.2c0.2-1.2,0.3-2.4,0.5-3.7c0.1-0.4,0.1-0.7,0.2-1c0.1-0.5-0.1,0.3,0-0.3
		c0-0.2,0.1-0.4,0.1-0.6c0.1-0.9,0.3-1.7,0.4-2.6c1.6-9.5,3.6-18.9,6.1-28.1c3-11.6,7-23,11.9-34c2.5-5.4,5.3-10.6,8.5-15.6
		c3-4.7,6.4-9.1,10.4-13c1-1,1.9-1.9,3-2.7c0.9-0.8,1.8-1.6,2.8-2.3c1-0.8,2.1-1.5,3.2-2.2c0.5-0.3,1-0.6,1.6-0.9l0.9-0.5
		c-0.5,0.3,0.3-0.2,0.5-0.2c1.1-0.6,2.3-1.1,3.5-1.5c0.6-0.2,1.1-0.4,1.7-0.6l0.5-0.2c0.4-0.1-0.6,0.2,0,0l1-0.3
		c1.3-0.3,2.6-0.6,3.9-0.8c0.6-0.1,1.2-0.2,1.9-0.2c0.4-0.1-0.6,0,0.1,0h0.4l1.2-0.1c1.4-0.1,2.8-0.1,4.2,0c1.2,0,2.4,0.2,3.6,0.4
		c1.3,0.2,2.5,0.5,3.8,0.8c0.6,0.2,1.2,0.3,1.7,0.5c0.8,0.2,1,0.3,1.6,0.5c4.7,1.8,9,4.5,12.8,7.8c8.5,7.4,14.6,17.1,19.5,27.2
		c5.2,11,9.3,22.4,12.3,34.1c2.7,9.9,4.8,19.9,6.4,30c0.9,5.5,1.7,10.9,2.2,16.4c0,0.2,0,0.5,0.1,0.8c0.2,2.5,5,1.2,4.8-1
		c-0.4-4-0.9-8-1.5-12c-1.4-9.7-3.3-19.2-5.5-28.8c-2.7-11.8-6.5-23.4-11.1-34.6c-4.6-10.9-10.4-21.6-18.4-30.3
		c-7.2-7.9-16.6-13.9-27.3-15.4c-11.4-1.4-22.9,1.6-32.1,8.4c-9.5,6.9-16.6,16.7-22.2,26.9c-5.8,11-10.6,22.5-14.1,34.5
		c-3.1,10.2-5.6,20.6-7.6,31.1c-1.1,5.8-2.1,11.6-2.8,17.4l-0.1,0.8c-0.1,1.2,1.6,1.5,2.4,1.3c1.2-0.2,2.2-1.1,2.4-2.3L171.5,369.1z
		"></path><path class="st1" d="M282.6,242.9l-1.3,21.5c0.1,1.2,0.9,2.3,2,2.9c0.9,0.4,2.1,0.4,2.1-0.8l1.2-21.5c-0.1-1.2-0.9-2.3-2-2.9
		C283.9,241.7,282.6,241.8,282.6,242.9L282.6,242.9z"></path><path class="st2" d="M210.1,216.5c0,0-4.3-13.1-9.6-9.4s2.7,28.7,11,23S210.1,216.5,210.1,216.5z"></path><path class="st1" d="M212.6,216c-1.2-3.8-3.2-8.6-6.9-10.6c-2.6-1.4-5.8-0.8-7.8,1.3c-1.5,1.7-1.7,4.2-1.6,6.4
		c0.2,5.3,1.9,10.4,4.9,14.8c1.3,2.1,3.3,3.7,5.7,4.5c3,0.8,5.8-0.5,8-2.5c2.9-2.7,3.1-6.4,1.3-9.8c-1-1.8-2.4-3.5-4.1-4.8
		c-1-0.7-2.4-0.7-3.5,0c-0.9,0.6-1.4,1.7-0.4,2.5c1,0.8,1.8,1.7,2.5,2.7c1.2,1.7,2.2,3.8,1.5,5.8c-0.5,1.2-1.4,2.1-2.5,2.7
		c-0.2,0.1,0.2-0.1,0.2-0.1l-0.3,0.1c-0.6,0.3,0.3-0.1-0.1,0c-0.1,0-0.2,0-0.3,0c-0.1,0,0.6,0,0.3,0c-0.7-0.1,0.2,0.1-0.1,0
		s-0.4-0.1-0.6-0.1c0.4,0.1,0.2,0.1-0.1-0.1s-0.3-0.1-0.5-0.2c0.4,0.2-0.1-0.1-0.3-0.2c-0.7-0.5-1.3-1.1-1.7-1.7
		c-2.6-3.6-4.3-7.9-4.8-12.4c-0.3-1.7-0.2-3.5,0.2-5.2c0.1-0.5,0,0,0.1-0.2s0.1-0.3,0.2-0.4c0-0.1,0.1-0.1,0.1-0.2
		c0.1-0.2-0.2,0.4-0.1,0.1s0.7-0.5,0-0.1c0.1-0.1,0.6-0.4,0.3-0.2s0.1,0,0.1-0.1s-0.1,0.1-0.2,0.1c0.4-0.1-0.1,0-0.2,0
		c0.5,0.1-0.1,0-0.1,0l0.3,0.1c-0.3-0.1-0.2-0.1,0,0l0.2,0.1c0.5,0.2-0.3-0.2,0.1,0.1c0.2,0.1,0.4,0.3,0.6,0.5
		c0.4,0.3,0.7,0.7,1,1.1c0.7,1,1.4,2.1,1.9,3.2c0.2,0.5,0.5,1,0.7,1.5c0.1,0.2,0.2,0.5,0.3,0.7l0.1,0.3c0.2,0.4,0.3,0.8,0.5,1.3
		c0.5,1.1,1.7,1.6,2.8,1.3C211.3,218,213,217.2,212.6,216z"></path><path class="st2" d="M283.3,217.5c0,0,6.4-12.2,11-7.7s-7.3,27.8-14.6,20.8S283.3,217.5,283.3,217.5z"></path><path class="st1" d="M285,219.3c1.5-2.9,3.7-6.3,6.6-8c0.8-0.5,1.8-0.8,2.7-0.6c0.2,0.1,0.4,0.1,0.6,0.2l0.2,0.1l0.1,0.1l-2.1-2.3
		c0,0.2,0.2,0.5,0.3,0.8c0.4,1.8,0.2,3.6-0.3,5.3c-1.1,4.5-3.4,8.6-6.5,12c-1.2,1.4-2.8,2.5-4.6,3c-0.7,0.2-1.5,0.1-2.3-0.1
		c-0.3-0.2-0.6-0.4-0.9-0.5c0.2-0.1,1.3,1.7,1,1c-0.2-0.3-0.4-0.7-0.5-1.1C277.7,225.2,281.7,221.2,285,219.3c0.3-0.1-1.3-1.9-1.4-2
		s-1.5-1.9-1.9-1.6c-3.4,1.9-7.2,5.8-5.8,10c0.9,2,2.2,3.9,3.8,5.3c0.9,1.1,2.1,2,3.4,2.6c1.8,0.5,3.8,0,5.2-1.2
		c4-3,6.7-8.1,8.1-12.8c0.7-2,0.9-4.1,0.6-6.2c-0.3-1.1-1-2.2-1.8-3c-1-1.2-2.4-2.9-4.1-3.2c-2.6-0.5-4.9,2.1-6.3,3.9
		c-1.2,1.5-2.2,3.1-3.1,4.8c-0.2,0.4,1.2,1.8,1.5,2S284.9,219.5,285,219.3z"></path><path class="st2" d="M230.5,246.5l-6.4,18.2c0,0,12.9,20.6,33.2,3.4l-0.3-15.5L230.5,246.5z"></path><path class="st1" d="M228.4,245.3l-4.8,13.5l-1.2,3.4c-0.2,0.4-0.4,0.9-0.5,1.3c-0.2,1.3,1.6,3,2.3,3.9c3.6,4.5,8.6,7.6,14.2,9
		c3.6,0.7,7.4,0.5,10.8-0.8c2.2-0.8,4.3-1.8,6.2-3.2c1-0.7,2-1.5,3-2.3c0.6-0.3,0.9-0.9,0.9-1.5c0-5.1-0.2-10.2-0.3-15.3
		c0-1.3-1.8-2.4-2.9-2.6l-23.1-5.4l-3.3-0.8c-1.1-0.2-1.6,0.7-1.2,1.6c0.5,1.1,1.6,1.9,2.8,2.2l23.1,5.4l3.3,0.8l-2.9-2.6l0.3,15.5
		l0.2-0.8c-5.1,4.3-12,7.7-18.6,6c-0.6-0.1-1.1-0.3-1.7-0.5c-0.5-0.2-1-0.4-1.4-0.6c-0.5-0.2-1-0.5-1.4-0.8l-0.4-0.2
		c-0.3-0.2,0.3,0.2,0,0l-0.8-0.5c-0.4-0.3-0.9-0.6-1.3-1l-0.5-0.4c-0.3-0.2,0.3,0.3,0.1,0.1l-0.3-0.3c-0.6-0.6-1.2-1.3-1.8-1.9
		l-0.4-0.5c-0.2-0.3,0.4,0.5,0,0c-0.2-0.2-0.4-0.5-0.5-0.7s-0.3-0.4-0.4-0.6l0.4,1.4l6.4-18.2C233.2,246,229.1,243.2,228.4,245.3z"></path><path class="st2" d="M209.4,211c0,0-2.2,39.3,26.2,49.5c35.4,12.7,53.5-27.6,51.8-58.1c0,0-27.5-6.3-32.4-23.7
		C254.9,178.8,225.4,213.9,209.4,211z"></path><path class="st1" d="M206.9,211c-0.2,5.2,0.2,10.5,1.2,15.6c1.9,10.1,5.8,20.2,13.3,27.4c8.9,8.5,22.7,12.6,34.7,9.7
		c11.5-2.8,20-11.4,25.3-21.6c5.6-10.9,8.5-23,8.5-35.3c0-1.4,0-2.9-0.1-4.3c0-0.9-1-1.4-1.8-1.5c-0.2,0-0.5-0.1-0.7-0.2l-0.4-0.1
		c-0.6-0.1,0.4,0.1,0,0l-1.2-0.3c-2.3-0.7-4.5-1.5-6.7-2.3c-5.8-2.4-11.6-5.5-16.1-10.1c-2.7-2.7-4.6-5.9-5.8-9.5
		c-0.5-1.6-3.7-1.5-4.6-0.4c-3.3,3.9-6.9,7.7-10.6,11.4c-6.6,6.5-13.6,12.9-21.8,17.3c-1.9,1-3.9,1.9-5.9,2.5
		c-0.4,0.1,0.2,0-0.3,0.1l-0.8,0.2c-0.5,0.1-1,0.1-1.5,0.2c0.5,0,0,0-0.2,0H211c-0.2,0-0.8-0.1-0.2,0l-0.7-0.1c-1-0.2-2.6,0-3.1,1.1
		s0.9,1.8,1.7,1.9c4.1,0.5,8.3-0.2,12.1-2c4.4-2.1,8.5-4.6,12.2-7.6c7.2-5.7,14-12,20.1-18.8c1.3-1.5,2.7-2.9,3.9-4.4l-4.6-0.4
		c2.1,7,7.6,12.4,13.7,16.2c5.1,3.2,10.7,5.7,16.5,7.4c1.3,0.4,2.7,0.8,4,1.1l-1.8-1.5c0.6,11.7-1.4,23.3-6,34.1
		c-4.1,9.5-10.9,19.1-20.7,23c-4.8,1.9-10.1,2.4-15.2,1.4c-5.7-1-11-3.4-15.5-7c-7.6-6.3-11.8-15.8-13.9-25.3
		c-1.1-5.7-1.7-11.5-1.6-17.3c0-0.1,0-0.2,0-0.3C212,208.9,207,208.8,206.9,211z"></path><path class="st1" d="M226.5,223.3c-0.2,1.1-0.2,2.2-0.1,3.3c0.2,1.1,0.5,2.2,1.1,3.1c0.7,1,1.6,1.8,2.7,2.3
		c1.8,0.7,3.8,0.8,5.7,0.4c1.1-0.2,2.2-1.4,1.7-2.5c-0.6-1.1-1.9-1.6-3.1-1.3l-0.5,0.1l0.7-0.1c-0.6,0.1-1.1,0.1-1.7,0.1l0.7,0.1
		c-0.4,0-0.8-0.1-1.2-0.2l0.6,0.2c-0.3-0.1-0.6-0.2-0.8-0.4l0.5,0.3c-0.3-0.2-0.6-0.4-0.8-0.6l0.4,0.4c-0.3-0.3-0.5-0.6-0.7-0.9
		l0.3,0.5c-0.3-0.5-0.5-1.1-0.6-1.8l0.1,0.5c-0.2-1-0.2-2-0.1-3.1l-0.1,0.5l0,0c0.1-0.5,0-1.1-0.3-1.5c-0.4-0.5-0.9-0.8-1.5-0.9
		c-0.7-0.1-1.3,0-1.9,0.2C227.1,222.4,226.6,222.8,226.5,223.3L226.5,223.3z"></path><path class="st1" d="M255,173.5c-3.3,4.9-7.1,9.6-11.2,13.9c-7.8,8.3-16.9,16.1-27.7,20.2c-2.9,1.1-5.9,1.8-9,2.1
		c-3.1,0.3-6.3,0.1-9.4-0.6c-0.9-0.2-2.6-0.2-3.1,0.7s0.8,1.7,1.6,1.9c12.9,3.1,25.7-1.5,36.4-8.9c8.9-6.2,16.6-14.1,23.2-22.7
		c1.4-1.8,2.8-3.6,4.1-5.6C260.9,172.9,256.1,171.9,255,173.5L255,173.5z"></path><path class="st1" d="M204.7,204.9c15.4-4.6,34.2-11,41.2-27c0.8-1.8-2.3-5.6-3.4-3.1c-3.1,7-9,12.2-15.6,15.9
		c-7.6,4.4-16.1,7.2-24.5,9.7c-1.1,0.3-0.7,2.3-0.3,3C202.7,204.4,203.6,205.3,204.7,204.9L204.7,204.9z"></path><path class="st1" d="M200.9,198.8c12-7,24.8-14.6,31.5-27.2c1-1.8-2.7-5.1-3.8-3c-6.6,12.3-19.4,19.7-31,26.6c-1,0.6,0,2.4,0.5,2.9
		C198.6,199,199.9,199.4,200.9,198.8L200.9,198.8z"></path><path class="st1" d="M262.1,181c6.1,6.5,13.9,11.2,22.5,13.5c0.9,0.3,2.5,0.1,2.8-1s-1.1-1.9-2-2.2c-7.4-2.1-14-6.1-19.3-11.8
		c-0.9-0.9-2.2-1.2-3.4-0.8c-0.7,0.2-1.1,0.9-0.9,1.6C261.8,180.6,262,180.8,262.1,181L262.1,181z"></path><path class="st2" d="M256.5,229.3c0,0,20.4-3.2,25-14.9s-9.7-12.3-22.1,0"></path><path class="st1" d="M257,231.1c6.9-1.1,14.1-3.6,19.8-7.7c4-2.9,7.6-7.1,8-12.2c0.5-4.9-3.8-7.7-8.3-7.6
		c-7.4,0.1-14.2,4.8-19.3,9.8c-0.9,0.9-0.1,2.1,0.8,2.5c1.1,0.6,2.5,0.4,3.4-0.5c3.8-3.7,8.8-7.4,14.2-8.1l0.8-0.1
		c-0.5,0,0.3,0,0.3,0s1.2,0.1,0.7,0c0.2,0,0.4,0.1,0.6,0.1s0.7,0.3,0.2,0.1c0.2,0.1,0.4,0.2,0.5,0.2c0.4,0.2-0.2-0.2,0.2,0.1
		c0.1,0.1,0.4,0.4,0.1,0.1c0.1,0.1,0.2,0.3,0.3,0.4c0.2,0.2,0.3,0.5,0.3,0.7c0.2,0.8,0.2,1.6,0.1,2.4c-1.2,8.2-10.7,12.4-17.6,14.5
		c-0.9,0.3-1.8,0.5-2.7,0.8l-0.5,0.1c-0.4,0.1,0.4-0.1-0.2,0.1l-0.9,0.2c-0.7,0.1-1.3,0.3-2,0.4c-1,0.2-2.2,0.9-1.9,2.1
		S256,231.3,257,231.1L257,231.1z"></path><path class="st1" d="M203.1,239l-1.3,21.5c-0.2,2.7,4.8,2.2,4.9-0.2l1.3-21.5C208.2,236,203.2,236.6,203.1,239L203.1,239z"></path><path class="st1" d="M244.7,205.4c0,0-0.6,2.6,2,3s3-2.8,0.9-3.8c-0.9-0.6-2.2-0.4-2.8,0.6C244.8,205.2,244.7,205.3,244.7,205.4z"></path><path class="st1" d="M256.9,206.7c0,0-0.6,2.6,2,3s3-2.8,0.9-3.8c-0.9-0.6-2.2-0.4-2.8,0.6C257,206.5,257,206.6,256.9,206.7z"></path><path class="st2" d="M208.5,308.9c-0.7,17.8-0.9,35.7-0.8,53.6"></path><path class="st0" d="M206.1,308.3c-0.7,17.8-0.9,35.7-0.8,53.6c0.1,1.2,1,2.2,2.2,2.5c0.9,0.2,2.6,0,2.6-1.2
		c-0.1-17.9,0.2-35.7,0.8-53.6C211,307.2,206.2,305.7,206.1,308.3z"></path><path class="st0" d="M273.8,312.5v51.4c0.1,1.2,0.6,2.3,1.6,3.1c0.5,0.4,1.9,1,1.9-0.2v-51.4c-0.1-1.2-0.6-2.3-1.6-3.1
		C275.2,311.8,273.8,311.2,273.8,312.5z"></path><path class="st0" d="M240.8,336.8c-4.3-4.5-7.7-9.8-10-15.5c-0.3-0.7-0.5-1.4-0.8-2c-0.3-0.6-0.5-1.4-0.5-2.1
		c0.2-1.2,1.3-0.9,2.1-0.5c1.2,0.9,2.3,2,3.3,3.1l4.1,4.1c0.5,0.5,3.2,2,3,0.1c-0.6-5.5,1.6-11,5.8-14.6l-3.5-1.9
		c4.4,10.4,1.7,23.2-6,31.3l3.8,3.2c2.8-9,5.6-18,7-27.3c0.2-1.5-2.6-5-3.9-2.9c-5.2,8.6-7.8,18.5-7.4,28.6c0.2,1.2,0.9,2.3,2,2.8
		c0.7,0.4,2,0.5,2-0.7c-0.2-7.5-2.8-14.8-7.4-20.7c-0.4-0.5-2.9-2.7-3.4-1c-0.8,3.3-0.1,6.8,1.8,9.5c0.5,0.8,3.4,2.7,3.4,0.6
		c0-4.1-0.9-8.2-2.6-12l-1.7,1.7l7.4,4.7c0.8,0.5,1.9,0.4,2-0.7s-1.1-2.2-2-2.8L232,317c-1.5-0.9-2.3,0.3-1.7,1.7
		c1.3,3.2,2,6.6,2,10l3.4,0.6c-1-1.7-1.3-3.7-0.8-5.6l-3.4-1c3.9,5.1,6.1,11.3,6.2,17.7l4,2.1c-0.4-9.7,2.2-19.4,7.3-27.7l-3.9-2.9
		c-1.4,9.3-4.2,18.3-7,27.3c-0.3,1,0.5,2.1,1.2,2.7c0.5,0.5,1.8,1.3,2.5,0.6c8.8-9.2,10.9-23.2,6-34.7c-0.4-1-2.3-2.9-3.5-1.9
		c-4.6,4-6.9,10-6.3,16.1l3,0.1l-4.9-4.9c-1.4-1.6-3-3-4.9-4.1c-1.4-0.7-3.3-1.3-4.6-0.2c-1.6,1.3-1,3.5-0.4,5.1
		c2.7,7.8,7,14.9,12.7,20.9c0.6,0.6,1.9,1.6,2.8,0.8S241.4,337.3,240.8,336.8L240.8,336.8z"></path></g><g id="character-1"><path class="st1" d="M33.4,435.2c0,0,13.9-144,73.1-139.5s76.8,138.8,76.8,138.8S72.2,435.2,33.4,435.2z"></path><path class="st1" d="M35.6,436.3c0.4-4.5,1-9,1.7-13.5c1.6-10.8,3.6-21.6,5.9-32.4c2.9-13.4,6.7-26.5,11.4-39.4
		c4.6-12.2,10.2-24.4,18.2-34.9c6.5-8.5,15.2-16.2,25.9-18.3c5.4-1.1,11-0.8,16.2,0.7l0.2,0.1l0.6,0.2l0.9,0.3
		c0.7,0.2,1.4,0.5,2,0.7l1.1,0.5c0.2,0.1,0.4,0.1,0.5,0.2c0.7,0.3,1.3,0.6,1.9,1s1.3,0.7,1.9,1l0.9,0.5c-0.5-0.3,0.5,0.3,0.7,0.5
		c1.2,0.8,2.4,1.7,3.6,2.6l0.4,0.3c-0.5-0.4,0,0,0.1,0.1c0.3,0.2,0.5,0.4,0.8,0.7c0.6,0.5,1.2,1,1.8,1.6s1.1,1,1.6,1.5l0.8,0.8
		l0.4,0.5l0.3,0.3l-0.1,0c2.2,2.4,4.4,4.9,6.3,7.5c4,5.4,7.6,11.2,10.7,17.3c6.5,12.8,11.8,26.2,15.9,39.9c3.6,12,6.7,24.1,9.1,36.3
		c1.3,6.6,2.6,13.2,3.5,19.9c0,0.3,0.1,0.6,0.1,0.9l0.7-1l-11.3,0.1c-9.5,0.1-19.1,0.1-28.6,0.2l-37.5,0.2l-38.5,0.2
		c-10.3,0.1-20.7,0.1-31,0.1H32c-1.1,0-0.6,1.3-0.2,1.8c0.7,0.9,1.8,1.5,3,1.6c9.8,0,19.7,0,29.5-0.1c12.7,0,25.3-0.1,38-0.2
		s25.4-0.1,38.1-0.2l30.2-0.2l9.5-0.1c1.4,0,2.9,0.1,4.4,0h0.2c0.6,0,0.7-0.5,0.7-1c-0.6-4.8-1.5-9.6-2.4-14.4
		c-2.1-11.5-4.8-22.9-7.9-34.2c-3.8-14-8.7-27.7-14.7-41c-5.9-12.8-13.1-25.2-23-35.3c-8.8-9-20.2-15.7-33-16.5
		c-11.2-0.7-21.3,4.3-29.3,12c-9.2,8.9-15.5,20.5-20.6,32c-5.5,12.9-10,26.3-13.3,39.9c-3,11.8-5.4,23.7-7.3,35.7
		c-1,6.5-2,13-2.7,19.6l-0.1,0.9C31.1,435.6,35.4,438,35.6,436.3z"></path><path class="st2" d="M148.8,264.2c0,0,12.2-35.4-17.6-48.5S62.5,226,60.6,265.3s46,43.9,46,43.9L148.8,264.2z"></path><path class="st1" d="M151.3,264.1c1.9-5.9,2.8-12.1,2.4-18.3c-0.2-5.4-1.5-10.7-3.8-15.5c-2.9-5.7-7.5-10.3-13.1-13.4
		c-12.1-6.8-27-7.2-40-3C83.9,218.2,72.9,227,66,238.7c-3.7,6.3-6.1,13.2-7.2,20.4c-1,6.6-1,13.5,1,20c3.2,10.2,10.9,17.9,20.2,22.9
		c7,3.7,14.5,6.2,22.3,7.5c1.9,0.3,5.3,1.2,6.8-0.2c1.4-1.3,2.6-2.7,3.8-4.1l20.3-21.6l17.1-18.2l1-1c0.6-0.7-1.5-0.9-1.8-1
		c-0.9,0-2.4,0-3.1,0.7l-14.3,15.2l-22.7,24.2l-5.2,5.5l3-0.7c1.2,0.1,0.3,0,0,0c-0.5-0.1-1.1-0.1-1.6-0.2c-0.8-0.1-1.6-0.3-2.4-0.4
		l-1.4-0.3l-0.4-0.1c-0.3-0.1-0.7-0.1-1-0.2c-5.7-1.3-11.2-3.4-16.4-6.2c-6.3-3.3-11.6-8.1-15.6-14c-4.7-7.5-5.9-16.4-5-25.1
		c2.1-19.6,14.5-37.5,32.8-45.2c4-1.7,8.2-2.8,12.5-3.4c4.1-0.5,8.2-0.3,12.3,0.5c9,1.8,17.6,6.8,22.5,14.7
		c6.5,10.2,6.3,24,2.9,35.3c-0.1,0.2-0.1,0.5-0.2,0.7C146,265,150.8,265.6,151.3,264.1z"></path><path class="st2" d="M148,296.2c11-13.7,0.4-62.3,0.4-62.3c-8-12.4-49.3-4.3-49.3-4.3c5.9,12.5,4.2,33,4.2,33
		c-5-11.2-18-6.2-17.2,4.7s13.7,14.1,13.7,14.1s-3.4,23.3-2.4,27.7s21.6,10.5,32.2-2C129.7,307.1,138.4,308.2,148,296.2z"></path><path class="st1" d="M150.2,297.5c2.4-3.1,3.6-7.1,4.3-10.9c0.8-4.9,1.1-9.9,1-14.9c-0.3-9.7-1.3-19.4-3-29
		c-0.4-2.7-0.9-5.4-1.5-8.1c-0.5-2.5-2.6-4.3-4.8-5.6c-3.8-2.3-8.3-3.2-12.6-3.7c-4.9-0.5-9.9-0.6-14.8-0.3
		c-6.7,0.3-13.4,1.1-20,2.4l-0.3,0.1c-1,0.2-2.3,1.1-1.7,2.3c3,6.5,3.9,13.8,4.2,20.8c0.2,3.9,0.2,7.8-0.1,11.7h4.8
		c-1.9-4.1-5.3-7.7-10.1-8.1c-3.9-0.3-7.7,1.6-9.9,4.9c-2.3,3.8-2.7,8.4-1,12.5c1.6,3.7,4.4,6.8,7.9,8.8c2,1.3,4.3,2.2,6.6,2.9
		l-1.8-2.2c-1.3,7.8-2.1,15.7-2.5,23.6c-0.2,1.6-0.1,3.2,0.3,4.8c0.7,1.6,2,3,3.6,3.7c4.4,2.5,9.7,3.3,14.6,3.2c7,0,13.7-3,18.4-8.2
		l-2.1,0.8c2.3,0.1,4.6-0.2,6.8-1.1C141.9,306.1,146.4,302,150.2,297.5c1.7-2.1-2.7-4.5-4.3-2.5c-2.7,3.5-6.1,6.4-10,8.5
		c-0.7,0.3-1.4,0.6-2.1,0.9l-0.8,0.3c-0.1,0-1.1,0.3-0.6,0.2c-0.8,0.2-1.7,0.3-2.5,0.3c-0.5,0,0.6,0-0.1,0c-0.5,0-0.9,0-1.4,0.1
		c-1,0.4-1.6,1.5-2.3,2.2c-0.7,0.6-1.5,1.2-2.3,1.8c-2.9,1.9-6.2,3-9.6,3.2c-1.6,0.2-3.2,0.2-4.7,0c-0.8-0.1-1.6-0.2-2.4-0.3
		c-0.6-0.1-1.2-0.2-1.8-0.4c-0.7-0.2-1.3-0.4-2-0.6c-0.3-0.1-0.5-0.2-0.8-0.3l-0.4-0.2c-0.6-0.3,0.5,0.2-0.1-0.1
		c-0.5-0.2-0.9-0.5-1.4-0.8c-0.2-0.1-0.7-0.5-0.1-0.1l-0.5-0.5c-0.4-0.4,0.2,0.3,0,0s-0.2-0.5-0.1,0l-0.1-0.4c0,0,0,0,0,0.2
		c0-0.1,0-0.2,0-0.4c-0.1-1-0.1-2,0-3.1c0.1-3,0.4-6,0.7-8.9c0.5-5,1.1-10,1.9-14.9c0.1-0.9-1-2-1.8-2.2c-0.4-0.1-0.8-0.2-1.2-0.4
		s-0.8-0.3-1.2-0.4l-0.7-0.3l-0.3-0.1c0.6,0.3,0,0-0.1,0c-2.5-1.1-4.7-2.8-6.3-5c-2-2.7-2.6-6.2-1.7-9.5c0.4-1.4,1.1-2.6,2.2-3.6
		c0.5-0.4,1-0.8,1.6-1.1c0.2-0.1,0.4-0.2,0.7-0.3l0.4-0.2c0,0,0.7-0.2,0.3-0.1c0.4-0.1,0.8-0.1,1.1-0.1c0.7,0-0.2,0,0.2,0l0.7,0.1
		c0.1,0,0.6,0.1,0.2,0c0.2,0,0.4,0.1,0.6,0.2c0.2,0.1,0.4,0.1,0.6,0.2c-0.4-0.2,0.2,0.1,0.3,0.2c0.7,0.4,1.3,0.9,1.8,1.4
		c0.6,0.8,1.2,1.6,1.6,2.5c0.5,1.1,1.5,1.8,2.7,1.8c1.1,0.1,2-0.7,2.1-1.8c0.7-8.1,0.2-16.3-1.3-24.2c-0.6-3.2-1.6-6.3-2.9-9.3
		l-1.7,2.3c5.3-1,10.6-1.7,16-2.1c4.5-0.4,9-0.6,13.6-0.4c2.3,0.1,4.5,0.3,6.8,0.7c0.5,0.1,1,0.2,1.5,0.3l0.3,0.1c0,0-0.4-0.1-0.1,0
		l0.8,0.2c1,0.2,1.9,0.5,2.8,0.9l0.7,0.3c0.2,0.1,0.6,0.2,0.1,0.1c0.4,0.2,0.8,0.4,1.2,0.6s0.7,0.4,1,0.6s-0.2-0.1,0.1,0.1l0.5,0.4
		c0.3,0.3,0.5,0.5,0.8,0.8c-0.3-0.3-0.1-0.1,0.1,0.1s0.1,0.3,0.1-0.1c0,0.1,0.1,0.2,0.1,0.4c0.4,2.1,0.8,4.2,1.2,6.3
		c0.7,3.8,1.2,7.6,1.8,11.7c0.6,4.9,1.1,9.9,1.3,14.9c0.3,4.9,0.2,9.7-0.3,14.6c-0.4,3.6-1.2,7.9-2.9,11.1c-0.4,0.7-0.8,1.3-1.3,1.9
		C144.2,297.2,148.6,299.5,150.2,297.5z"></path><path class="st2" d="M135.2,274.7c0,0,26.1,2.3,30-11.4s-15-19.1-29-7.1"></path><path class="st1" d="M136.6,276.7c2.7,0.2,5.4,0.2,8.1,0c5-0.3,10.3-1.1,14.8-3.4c4.8-2.4,8.2-6.8,7.9-12.3
		c-0.3-6-5.3-11.2-10.9-12.8c-7.6-2.2-16,1.1-21.8,6c-0.8,0.7,2.4,4.6,3.1,3.9c5-4.3,11.6-7.2,18.3-6.5c2.4,0.2,4.6,0.9,6.6,2.3
		c0.1,0.1,0.7,0.6,0.4,0.4c0.2,0.2,0.1,0.1,0.1,0.1s0.1,0.1,0,0s0,0,0.1,0.1v0.1c0.1,0.2,0.2,0.4,0.3,0.6c0.4,1.1,0.6,2.2,0.5,3.4
		c-0.4,10.8-13,13.6-21.6,14.2c-2.9,0.2-5.7,0.2-8.6,0c-0.8-0.1,0.3,1.7,0.4,1.9C134.7,275.2,135.6,276.6,136.6,276.7L136.6,276.7z"></path><path class="st1" d="M112.3,276.8c0.1,0.8,0.3,1.7,0.6,2.4c0.6,1.9,1.7,3.7,3.2,5.2c1.3,1.2,2.8,2.3,4.4,3c0.5,0.3,1.1,0.4,1.7,0.5
		c0.3,0,0.8,0,0.9-0.3c0.4-0.8-1.4-1.7-1.9-1.9c-0.1,0-0.6-0.3-0.2-0.1l-0.1,0l-0.4-0.2c-0.3-0.2,0.5,0.3,0.1,0
		c-0.2-0.1-0.4-0.3-0.6-0.5s0.3,0.3,0,0l-0.3-0.3c-0.2-0.2-0.3-0.3-0.5-0.5c-0.1-0.1-0.1-0.2-0.2-0.2c0,0,0.2,0.3,0.1,0.1l-0.2-0.2
		c-0.3-0.4-0.5-0.7-0.7-1.1c-0.2-0.4-0.4-0.7-0.6-1.1s0.1,0.2,0,0c0-0.1-0.1-0.1-0.1-0.2s-0.1-0.4-0.2-0.6c-0.2-0.5-0.3-1.1-0.4-1.6
		c-0.1-0.3-0.1-0.5-0.1-0.8c0-0.4-0.6-0.8-0.8-1c-0.5-0.4-1.1-0.7-1.7-0.9C114,276.3,112.3,275.9,112.3,276.8L112.3,276.8z"></path><path class="st1" d="M135,248.2c0,0-2.4,0.8-1.4,3s3.7,1,3.4-1.1c0-1-0.8-1.8-1.8-1.9C135.2,248.2,135.1,248.2,135,248.2z"></path><path class="st1" d="M119,249.6c-1.2,0.3-1.8,1.5-1.5,2.7c0,0.1,0.1,0.2,0.1,0.3c1,2.2,3.7,1,3.4-1.1c0-1-0.8-1.9-1.8-1.9
		C119.2,249.6,119.1,249.6,119,249.6z"></path><path class="st2" d="M83.4,362.1c-7.9,21-10.6,43.6-8,65.9c0.2,2.1,4.9,0.4,4.7-1.4c-2.6-22,0.1-44.3,7.9-65.1
		c0.4-1.1-0.8-1.5-1.7-1.4C85.1,360.3,84,361,83.4,362.1L83.4,362.1z"></path></g></svg>